<svg width="16" height="16" viewBox="0 0 16 16" fill="none" xmlns="http://www.w3.org/2000/svg">
  <path d="M8 0.2C3.58 0.2 0 3.78 0 8.2C0 11.76 2.29 14.79 5.47 15.8C5.87 15.87 6.02 15.63 6.02 15.43C6.02 15.26 6.01 14.76 6.01 14.06C3.78 14.52 3.31 13.1 3.31 13.1C2.95 12.12 2.42 11.86 2.42 11.86C1.71 11.38 2.47 11.39 2.47 11.39C3.26 11.45 3.65 12.19 3.65 12.19C4.36 13.42 5.52 13.06 5.97 12.86C6.05 12.33 6.26 11.97 6.5 11.75C4.73 11.54 2.88 10.85 2.88 7.84C2.88 6.96 3.19 6.24 3.71 5.67C3.61 5.46 3.34 4.6 3.8 3.46C3.8 3.46 4.48 3.25 6 4.3C6.64 4.1 7.36 4 8.08 4C8.8 4 9.52 4.1 10.16 4.3C11.68 3.25 12.36 3.46 12.36 3.46C12.82 4.6 12.55 5.46 12.45 5.67C12.97 6.24 13.28 6.96 13.28 7.84C13.28 10.86 11.42 11.53 9.64 11.74C9.93 12 10.19 12.5 10.19 13.26C10.19 14.24 10.18 15.08 10.18 15.43C10.18 15.63 10.33 15.87 10.73 15.8C13.91 14.79 16.2 11.76 16.2 8.2C16.2 3.78 12.62 0.2 8 0.2Z" fill="white"/>
</svg>
