<svg width="16" height="16" viewBox="0 0 24 24" fill="none" xmlns="http://www.w3.org/2000/svg">
  <path d="M3 5.99999C3 4.89999 3.9 3.99999 5 3.99999H19C20.1 3.99999 21 4.89999 21 5.99999V17C21 18.1 20.1 19 19 19H5C3.9 19 3 18.1 3 17V5.99999Z" fill="#EA4335"/>
  <path d="M3 6L12 13L21 6V17C21 18.1 20.1 19 19 19H5C3.9 19 3 18.1 3 17V6Z" fill="#34A853"/>
  <path d="M21 6L12 13L3 6H21Z" fill="#4285F4"/>
  <path d="M3 6V17C3 18.1 3.9 19 5 19V10L3 6Z" fill="#FBBC05"/>
  <path d="M21 6V17C21 18.1 20.1 19 19 19V10L21 6Z" fill="#FBBC05"/>
</svg>
